<svg xmlns="http://www.w3.org/2000/svg" version="1.1" xmlns:xlink="http://www.w3.org/1999/xlink" xmlns:svgjs="http://svgjs.dev/svgjs" width="1000" height="718" viewBox="0 0 1000 718"><g transform="matrix(1,0,0,1,-0.44675814133097447,0.291225049803586)"><svg viewBox="0 0 344 247" data-background-color="#ffffff" preserveAspectRatio="xMidYMid meet" height="718" width="1000" xmlns="http://www.w3.org/2000/svg" xmlns:xlink="http://www.w3.org/1999/xlink"><g id="tight-bounds" transform="matrix(1,0,0,1,0.1539711845414331,-0.09997365579206985)"><svg viewBox="0 0 343.69234305676855 247.2" height="247.2" width="343.69234305676855"><g><svg viewBox="0 0 343.69234305676855 247.2" height="247.2" width="343.69234305676855"><g><svg viewBox="0 0 343.69234305676855 247.2" height="247.2" width="343.69234305676855"><g><svg viewBox="0 0 343.69234305676855 247.2" height="247.2" width="343.69234305676855"><g><svg viewBox="0 0 343.69234305676855 247.2" height="247.2" width="343.69234305676855"><path d="M342.888 53.02C341.272 27.36 336.667 20.227 336.667 20.227 322.529-6.202 304.885-0.506 289.034 3.292 261.049 3.446 233.177 9.091 205.256 12.119 146.652 12.581 87.547 4.986 29.234 23.717 23.757 29.464-5.683 24.846 0.974 56.304 2.719 69.39 9.085 83.913 8.892 95.922 9.764 98.026 10.976 93.202 11.493 96.23 13.303 104.39 16.259 100.541 18.683 105.365 15.306 118.246 17.73 128.971 20.04 140.21 15.969 143.135 10.75 141.749 8.407 151.449 8.164 158.479 6.856 157.145 5.418 156.837 4.367 156.632 2.251 157.402 2.606 159.608 3.818 167.152-1.385 171.514 1.879 178.904-0.367 186.91 3.43 193.838 2.913 202.511 2.849 204.255 3.204 205.744 3.77 206.154 6.274 208.361 2.622 212.672 3.01 217.342 28.701 249.262 56.573 227.195 82.894 241.872 89.729 231.608 84.59 245.516 87.321 243.36 89.454 240.846 91.005 251.263 93.413 245.362 93.784 243.668 93.219 239.665 94.544 240.435 95.238 240.846 95.852 240.743 95.949 238.382 96.095 234.841 94.818 237.048 94.479 235.201 98.147 225.861 97.242 248.081 100.684 247.158 100.522 244.438 99.52 240.538 101.572 241.051 103.608 237.151 103.673 233.918 105.482 242.693 105.547 244.592 105.87 245.926 106.387 246.85 112.042 237.305 117.665 250.237 123.595 245.926 127.231 241.205 130.721 248.492 134.405 246.696 135.697 245.259 137.006 242.693 138.25 247.004 153.487 247.928 169.725 244.079 184.17 247.158 222.771 241.41 264.022 249.518 304.723 241.923 314.321 238.998 324.29 234.841 333.645 231.506 333.645 231.506 341.223 222.371 341.223 181.316S342.839 145.393 343.082 112.703C343.324 80.013 344.455 78.679 342.839 53.02Z" opacity="1" fill="#ff0000" data-fill-palette-color="tertiary"></path><g transform="matrix(1,0,0,1,55.76831999999999,26.230666666666668)"><svg width="232.15570305676857" viewBox="3.299999952316284 -34.349998474121094 40.95000076293945 34.349998474121094" height="194.73866666666666" data-palette-color="#ffffff"><path d="M32.85-5.2L32.85-18.3 26.6-5.5Q25.8-3.9 24.9-3.23 24-2.55 22.75-2.55L22.75-2.55Q21.15-2.55 20.05-3.68 18.95-4.8 17.2-7.75L17.2-7.75 11.4-18.3 11.4-4.15Q11.4-2 10.43-1 9.45 0 7.5 0L7.5 0Q5.3 0 4.3-0.98 3.3-1.95 3.3-4.8L3.3-4.8 3.3-26.6Q3.3-30.45 5.05-32.4 6.8-34.35 10.95-34.35L10.95-34.35Q12.5-34.35 13.65-33.83 14.8-33.3 15.38-32.63 15.95-31.95 16.5-30.95L16.5-30.95 23.2-16.3 30.3-30.7Q32.15-34.3 36.95-34.3L36.95-34.3Q39.2-34.3 40.8-33.52 42.4-32.75 43.33-31.03 44.25-29.3 44.25-26.7L44.25-26.7 44.25-4.95Q44.2 0 38 0L38 0Q35.75 0 34.33-1.23 32.9-2.45 32.85-5.2L32.85-5.2Z" opacity="1" transform="matrix(1,0,0,1,0,0)" fill="#ffffff" class="undefined-text-0" data-fill-palette-color="quaternary" id="text-0"></path></svg></g></svg></g></svg></g></svg></g><g></g></svg></g><defs></defs></svg><rect width="343.69234305676855" height="247.2" fill="none" stroke="none" visibility="hidden"></rect></g></svg></g></svg>